<svg t="1679286429945" class="icon" viewBox="0 0 1024 1024" version="1.1" xmlns="http://www.w3.org/2000/svg" p-id="1835" width="200" height="200"><path d="M919.466667 281.6l-170.666667-204.8A87.466667 87.466667 0 0 0 682.666667 46.933333H192c-59.733333 0-106.666667 46.933333-106.666667 106.666667V874.666667c0 59.733333 46.933333 106.666667 106.666667 106.666666h640c59.733333 0 106.666667-46.933333 106.666667-106.666666V334.933333c0-19.2-6.4-38.4-19.2-53.333333zM298.666667 277.333333h256c23.466667 0 42.666667 19.2 42.666666 42.666667s-19.2 42.666667-42.666666 42.666667H298.666667c-23.466667 0-42.666667-19.2-42.666667-42.666667s19.2-42.666667 42.666667-42.666667z m426.666666 469.333334H298.666667c-23.466667 0-42.666667-19.2-42.666667-42.666667s19.2-42.666667 42.666667-42.666667h426.666666c23.466667 0 42.666667 19.2 42.666667 42.666667s-19.2 42.666667-42.666667 42.666667z m0-192H298.666667c-23.466667 0-42.666667-19.2-42.666667-42.666667s19.2-42.666667 42.666667-42.666667h426.666666c23.466667 0 42.666667 19.2 42.666667 42.666667s-19.2 42.666667-42.666667 42.666667z m85.333334-192h-106.666667c-23.466667 0-42.666667-19.2-42.666667-42.666667V170.666667c0-23.466667 19.2-42.666667 42.666667-42.666667s42.666667 19.2 42.666667 42.666667v106.666666h64c23.466667 0 42.666667 19.2 42.666666 42.666667s-19.2 42.666667-42.666666 42.666667z" fill="#80B8F8" p-id="1836"></path></svg>